# xmcd
#
# Track frame offsets:
#	150
#	7316
#	18592
#	28503
#	42053
#	49240
#	67751
#	79551
#	85557
#	99149
#	111165
#	119779
#	137925
#	146717
#	158243
#
# Disc length: 2237 seconds
#
# Revision: 0
# Processed by: cddbd v1.5.2PL0 Copyright (c) Steve Scherf et al.
# Submitted via: FairStars CD Ripper 1.90
#
DISCID=c108bb0f
DTITLE=Sonny Smith - National Banjo Champion
DYEAR=2000
DGENRE=Bluegrass
TTITLE0=Theme Time
TTITLE1=Foggy Mountain Special
TTITLE2=Kentucky Waltz
TTITLE3=Bill Cheatham
TTITLE4=Shuckin' The Corn
TTITLE5=Limehouse Blues
TTITLE6=Spinnin' Wheel
TTITLE7=Nine Mile Breakdown
TTITLE8=Over The Waterfalls
TTITLE9=Somewhere My Love
TTITLE10=Doug's Tune
TTITLE11=Angelina Baker
TTITLE12=Foggy Mountain Breakdown
TTITLE13=Dueling Banjos
TTITLE14=Little Rock Getaway
EXTD=
EXTT0=
EXTT1=
EXTT2=
EXTT3=
EXTT4=
EXTT5=
EXTT6=
EXTT7=
EXTT8=
EXTT9=
EXTT10=
EXTT11=
EXTT12=
EXTT13=
EXTT14=
PLAYORDER=
